<svg width="107" height="20" viewBox="0 0 107 20" fill="none" xmlns="http://www.w3.org/2000/svg">
<g id="Group 1171274915">
<rect id="Rectangle 531" width="2" height="20" rx="1" fill="white"/>
<rect id="Rectangle 545" x="70" width="2" height="20" rx="1" fill="white"/>
<rect id="Rectangle 538" x="35" width="2" height="20" rx="1" fill="white"/>
<rect id="Rectangle 548" x="100" width="2" height="20" rx="1" fill="white"/>
<rect id="Rectangle 532" x="5" y="4" width="2" height="12" rx="1" fill="white"/>
<rect id="Rectangle 546" x="75" y="4" width="2" height="12" rx="1" fill="white"/>
<rect id="Rectangle 539" x="40" y="4" width="2" height="12" rx="1" fill="white"/>
<rect id="Rectangle 549" x="105" y="4" width="2" height="12" rx="1" fill="white"/>
<rect id="Rectangle 533" x="10" y="6" width="2" height="9" rx="1" fill="white"/>
<rect id="Rectangle 547" x="80" y="6" width="2" height="9" rx="1" fill="white"/>
<rect id="Rectangle 540" x="45" y="6" width="2" height="9" rx="1" fill="white"/>
<rect id="Rectangle 537" x="30" y="6" width="2" height="9" rx="1" fill="white"/>
<rect id="Rectangle 550" x="95" y="6" width="2" height="9" rx="1" fill="white"/>
<rect id="Rectangle 541" x="65" y="6" width="2" height="9" rx="1" fill="white"/>
<rect id="Rectangle 534" x="15" y="1" width="2" height="18" rx="1" fill="white"/>
<rect id="Rectangle 542" x="50" y="1" width="2" height="18" rx="1" fill="white"/>
<rect id="Rectangle 535" x="20" width="2" height="20" rx="1" fill="white"/>
<rect id="Rectangle 551" x="85" width="2" height="20" rx="1" fill="white"/>
<rect id="Rectangle 543" x="55" width="2" height="20" rx="1" fill="white"/>
<rect id="Rectangle 536" x="25" width="2" height="20" rx="1" fill="white"/>
<rect id="Rectangle 552" x="90" width="2" height="20" rx="1" fill="white"/>
<rect id="Rectangle 544" x="60" width="2" height="20" rx="1" fill="white"/>
</g>
</svg>
